<?xml version="1.0" encoding="utf-8"?>
<svg width="1440" height="790" viewBox="0 0 1440 790" fill="none" xmlns="http://www.w3.org/2000/svg">
<style type="text/css">
	.st0{fill:none;stroke:#333333;}
	.st1{fill:none;stroke:#222222;}
</style>
<path d="M614.603 0.22579L206.779 -236.575"/>
<path d="M611.314 10.0925L180.467 -180.664" class="st0"/>
<path d="M604.736 23.2482L157.445 -121.464" class="st0"/>
<path d="M601.447 36.4038L141.001 -62.2633" class="st0"/>
<path d="M601.447 49.5594L131.134 0.22583" class="st0"/>
<path d="M598.158 62.715H127.845" class="st0"/>
<path d="M601.447 75.8706L131.134 125.204" class="st0"/>
<path d="M601.447 85.7373L141.001 184.404" class="st0"/>
<path d="M604.736 98.8929L157.445 243.605" class="st0"/>
<path d="M611.314 112.049L180.467 302.805" class="st0"/>
<path d="M614.603 121.915L206.779 358.716" class="st0"/>
<path d="M621.181 135.071L242.957 411.339" class="st0"/>
<path d="M631.047 144.938L282.423 457.384" class="st0"/>
<path d="M640.914 151.515L325.179 503.428" class="st0"/>
<path d="M650.781 161.382L374.513 542.895" class="st0"/>
<path d="M660.647 167.96L423.846 575.784" class="st0"/>
<path d="M670.514 174.538L479.758 602.095" class="st0"/>
<path d="M683.67 177.827L538.958 625.118" class="st0"/>
<path d="M696.825 181.116L598.158 641.562" class="st0"/>
<path d="M709.981 184.404L660.647 651.429" class="st0"/>
<path d="M723.137 184.404V654.718" class="st0"/>
<path d="M736.292 184.404L782.337 651.429" class="st0"/>
<path d="M746.159 181.116L844.826 641.562" class="st0"/>
<path d="M759.315 177.827L904.026 625.118" class="st0"/>
<path d="M772.47 174.538L963.227 602.095" class="st0"/>
<path d="M782.337 167.96L1019.14 575.784" class="st0"/>
<path d="M795.493 161.382L1071.76 542.895" class="st0"/>
<path d="M805.359 151.515L1117.81 503.428" class="st0"/>
<path d="M811.937 144.938L1163.85 457.384" class="st0"/>
<path d="M821.804 135.071L1203.32 411.339" class="st0"/>
<path d="M828.382 121.915L1236.21 358.716" class="st0"/>
<path d="M834.959 112.049L1262.52 302.805" class="st0"/>
<path d="M838.248 98.8929L1285.54 243.605" class="st0"/>
<path d="M841.537 85.7373L1301.98 184.404" class="st0"/>
<path d="M844.826 75.8706L1311.85 125.204" class="st0"/>
<path d="M844.826 62.715H1315.14" class="st0"/>
<path d="M844.826 49.5594L1311.85 0.22583" class="st0"/>
<path d="M841.537 36.4038L1301.98 -62.2633" class="st0"/>
<path d="M838.248 23.2482L1285.54 -121.464" class="st0"/>
<path d="M834.959 10.0925L1262.52 -180.664" class="st0"/>
<path d="M828.382 0.22579L1236.21 -236.575" class="st0"/>
<path d="M610.496 8.03729L191.276 -206.44" class="st1"/>
<path d="M607.091 20.7446L165.572 -148.634" class="st1"/>
<path d="M600.509 32.6008L146.222 -89.1252" class="st1"/>
<path d="M600.281 46.1594L133.225 -27.9141" class="st1"/>
<path d="M597.728 55.6898L127.433 31.8226" class="st1"/>
<path d="M597.5 69.2485L127.996 93.2619" class="st1"/>
<path d="M600.448 83.6582L134.911 156.404" class="st1"/>
<path d="M601.071 94.0401L145.855 217.22" class="st1"/>
<path d="M604.02 108.45L167.181 277.413" class="st1"/>
<path d="M610.997 120.534L193.385 332.103" class="st1"/>
<path d="M618.825 129.441L222.767 387.645" class="st1"/>
<path d="M625.802 141.526L260.205 438.535" class="st1"/>
<path d="M633.63 150.433L299.345 483.072" class="st1"/>
<path d="M641.458 159.34L346.541 522.958" class="st1"/>
<path d="M653.314 165.922L397.766 560.518" class="st1"/>
<path d="M665.17 172.504L450.693 591.724" class="st1"/>
<path d="M677.026 179.086L508.499 617.428" class="st1"/>
<path d="M689.734 182.49L568.008 636.778" class="st1"/>
<path d="M702.441 185.895L626.042 648.924" class="st1"/>
<path d="M712.823 185.272L688.956 655.567" class="st1"/>
<path d="M726.381 185.5L750.395 655.004" class="st1"/>
<path d="M739.94 185.729L813.537 648.089" class="st1"/>
<path d="M751.173 181.929L874.353 637.145" class="st1"/>
<path d="M765.583 178.98L933.694 618.996" class="st1"/>
<path d="M777.667 172.003L988.385 592.791" class="st1"/>
<path d="M785.723 167.352L1044.78 560.233" class="st1"/>
<path d="M797.807 160.375L1094.82 525.972" class="st1"/>
<path d="M807.566 149.37L1140.21 483.655" class="st1"/>
<path d="M816.473 141.542L1180.09 436.459" class="st1"/>
<path d="M823.055 129.686L1217.65 385.234" class="st1"/>
<path d="M829.637 117.83L1248.86 332.307" class="st1"/>
<path d="M835.367 109.15L1273.71 277.678" class="st1"/>
<path d="M838.772 96.4431L1293.06 218.169" class="st1"/>
<path d="M842.177 83.7358L1306.06 156.958" class="st1"/>
<path d="M842.405 70.1772L1312.7 94.0444" class="st1"/>
<path d="M842.633 56.6186L1312.14 32.6051" class="st1"/>
<path d="M842.861 43.06L1305.22 -30.5366" class="st1"/>
<path d="M839.062 31.827L1294.28 -91.3527" class="st1"/>
<path d="M835.261 20.5941L1275.28 -147.518" class="st1"/>
<path d="M828.285 8.50978L1249.92 -205.385" class="st1"/>
<path d="M824.485 -2.72314L1216.51 -258.601" class="st1"/>
<path d="M817.508 -14.8074L1182.25 -308.64" class="st1"/>
<path d="M806.503 -24.5659L1140.79 -357.205" class="st1"/>
<path d="M797.824 -30.2963L1093.59 -397.091" class="st1"/>
</svg>
