<?xml version="1.0" encoding="utf-8"?>
<svg version="1.1" id="Calque_1" xmlns="http://www.w3.org/2000/svg" xmlns:xlink="http://www.w3.org/1999/xlink" x="0px" y="0px"
	 viewBox="0 0 1187.7 1188.2" style="enable-background:new 0 0 1187.7 1188.2;" xml:space="preserve">
<style type="text/css">
	.st0{fill:none;stroke:#333333;}
	.st1{fill:none;stroke:#222222;}
</style>
<path class="st0" d="M595.7,470.3V0"/>
<path class="st0" d="M582.6,473.6L533.2,3.3"/>
<path class="st0" d="M569.4,473.6L470.8,13.2"/>
<path class="st0" d="M556.3,476.9L411.6,29.6"/>
<path class="st0" d="M543.1,483.5L352.4,52.6"/>
<path class="st0" d="M533.2,486.8L296.4,78.9"/>
<path class="st0" d="M523.4,493.3L247.1,115.1"/>
<path class="st0" d="M513.5,503.2L197.8,154.6"/>
<path class="st0" d="M503.6,513.1L155,197.3"/>
<path class="st0" d="M493.8,522.9L115.5,246.7"/>
<path class="st0" d="M487.2,532.8L79.4,296"/>
<path class="st0" d="M483.9,542.7L53.1,351.9"/>
<path class="st0" d="M477.3,555.8L30,411.1"/>
<path class="st0" d="M474,569L13.6,470.3"/>
<path class="st0" d="M474,582.1L3.7,532.8"/>
<path class="st0" d="M470.8,595.3H0.4"/>
<path class="st0" d="M474,608.4L3.7,657.8"/>
<path class="st0" d="M474,618.3L13.6,717"/>
<path class="st0" d="M477.3,631.5L30,776.2"/>
<path class="st0" d="M483.9,644.6L53.1,835.4"/>
<path class="st0" d="M487.2,654.5L79.4,891.3"/>
<path class="st0" d="M493.8,667.6L115.5,943.9"/>
<path class="st0" d="M503.6,677.5L155,990"/>
<path class="st0" d="M513.5,684.1L197.8,1036"/>
<path class="st0" d="M523.4,694l-276.3,381.5"/>
<path class="st0" d="M533.2,700.5l-236.8,407.8"/>
<path class="st0" d="M543.1,707.1l-190.8,427.6"/>
<path class="st0" d="M556.3,710.4l-144.7,447.3"/>
<path class="st0" d="M569.4,713.7l-98.7,460.5"/>
<path class="st0" d="M582.6,717l-49.3,467"/>
<path class="st0" d="M595.7,717v470.3"/>
<path class="st0" d="M608.9,717l46,467"/>
<path class="st0" d="M618.8,713.7l98.7,460.5"/>
<path class="st0" d="M631.9,710.4l144.7,447.3"/>
<path class="st0" d="M645.1,707.1l190.8,427.6"/>
<path class="st0" d="M654.9,700.5l236.8,407.8"/>
<path class="st0" d="M668.1,694l276.3,381.5"/>
<path class="st0" d="M678,684.1L990.4,1036"/>
<path class="st0" d="M684.5,677.5L1036.4,990"/>
<path class="st0" d="M694.4,667.6l381.5,276.3"/>
<path class="st0" d="M701,654.5l407.8,236.8"/>
<path class="st0" d="M707.6,644.6l427.6,190.8"/>
<path class="st0" d="M710.8,631.5l447.3,144.7"/>
<path class="st0" d="M714.1,618.3l460.4,98.7"/>
<path class="st0" d="M717.4,608.4l467,49.3"/>
<path class="st0" d="M717.4,595.3h470.3"/>
<path class="st0" d="M717.4,582.1l467-49.3"/>
<path class="st0" d="M714.1,569l460.4-98.7"/>
<path class="st0" d="M710.8,555.8l447.3-144.7"/>
<path class="st0" d="M707.6,542.7l427.6-190.8"/>
<path class="st0" d="M701,532.8L1108.8,296"/>
<path class="st0" d="M694.4,522.9l381.5-276.3"/>
<path class="st0" d="M684.5,513.1l351.9-315.7"/>
<path class="st0" d="M678,503.2l312.5-348.6"/>
<path class="st0" d="M668.1,493.3l276.3-378.2"/>
<path class="st0" d="M654.9,486.8L891.7,78.9"/>
<path class="st0" d="M645.1,483.5L835.8,52.6"/>
<path class="st0" d="M631.9,476.9L776.6,29.6"/>
<path class="st0" d="M618.8,473.6l98.7-460.4"/>
<path class="st0" d="M608.9,473.6l46-470.3"/>
<path class="st1" d="M626.2,476.8L747.9,22.5"/>
<path class="st1" d="M612.6,476.6L686.7,9.5"/>
<path class="st1" d="M599.9,473.2L623.8,2.9"/>
<path class="st1" d="M586.3,472.9l-24-469.5"/>
<path class="st1" d="M571.9,475.9L499.2,10.4"/>
<path class="st1" d="M561.6,476.5L438.4,21.3"/>
<path class="st1" d="M550.3,480.3l-169-436.8"/>
<path class="st1" d="M538.2,487.3L323.5,68.8"/>
<path class="st1" d="M526.2,494.3l-255-395.2"/>
<path class="st1" d="M514.1,501.2L220.2,136.5"/>
<path class="st1" d="M505.2,509.1L172.5,174.8"/>
<path class="st1" d="M499.4,517.8L132.6,222"/>
<path class="st1" d="M489.7,528.8L95.1,273.2"/>
<path class="st1" d="M483.1,540.6L63.9,326.1"/>
<path class="st1" d="M479.7,553.3L38.2,383.9"/>
<path class="st1" d="M473.1,565.2L18.8,443.5"/>
<path class="st1" d="M472.9,578.7L5.8,504.7"/>
<path class="st1" d="M470.3,588.3L0,564.4"/>
<path class="st1" d="M470.1,601.8l-469.5,24"/>
<path class="st1" d="M473,616.2L7.5,689"/>
<path class="st1" d="M473.7,626.6L18.4,749.8"/>
<path class="st1" d="M476.6,641L39.8,810"/>
<path class="st1" d="M483.6,653.1L66,864.7"/>
<path class="st1" d="M491.4,662L95.4,920.2"/>
<path class="st1" d="M498.4,674.1l-365.6,297"/>
<path class="st1" d="M506.2,683l-334.3,332.6"/>
<path class="st1" d="M514.1,691.9l-294.9,363.6"/>
<path class="st1" d="M525.9,698.5l-255.5,394.6"/>
<path class="st1" d="M537.8,705.1l-214.5,419.2"/>
<path class="st1" d="M549.6,711.7L381.1,1150"/>
<path class="st1" d="M562.3,715.1l-121.7,454.3"/>
<path class="st1" d="M575,718.5l-76.4,463"/>
<path class="st1" d="M585.4,717.8l-23.9,470.3"/>
<path class="st1" d="M599,718.1l24,469.5"/>
<path class="st1" d="M612.5,718.3l73.6,462.4"/>
<path class="st1" d="M623.8,714.5l123.2,455.2"/>
<path class="st1" d="M638.2,711.6l168.1,440"/>
<path class="st1" d="M650.3,704.6L861,1125.4"/>
<path class="st1" d="M658.3,699.9l259.1,392.9"/>
<path class="st1" d="M670.4,693l297,365.6"/>
<path class="st1" d="M680.2,681.9l332.6,334.3"/>
<path class="st1" d="M689.1,674.1L1052.7,969"/>
<path class="st1" d="M695.6,662.3l394.6,255.6"/>
<path class="st1" d="M702.2,650.4l419.2,214.5"/>
<path class="st1" d="M708,641.7l438.3,168.5"/>
<path class="st1" d="M711.4,629l454.3,121.7"/>
<path class="st1" d="M714.8,616.3l463.9,73.2"/>
<path class="st1" d="M715,602.8l470.3,23.9"/>
<path class="st1" d="M715.2,589.2l469.5-24"/>
<path class="st1" d="M715.5,575.6l462.4-73.6"/>
<path class="st1" d="M711.7,564.4l455.2-123.2"/>
<path class="st1" d="M707.9,553.2l440-168.1"/>
<path class="st1" d="M700.9,541.1l421.6-213.9"/>
<path class="st1" d="M697.1,529.9l392-255.9"/>
<path class="st1" d="M690.1,517.8l364.7-293.8"/>
<path class="st1" d="M679.1,508l334.3-332.6"/>
<path class="st1" d="M670.4,502.3l295.8-366.8"/>
<path class="st1" d="M659.4,492.5L915,97.9"/>
<path class="st1" d="M647.6,485.9L862,66.7"/>
<path class="st1" d="M638,483.4L804.2,41"/>
</svg>
